<?xml version="1.0" encoding="UTF-8" standalone="no"?>
<svg
   xmlns:dc="http://purl.org/dc/elements/1.1/"
   xmlns:cc="http://creativecommons.org/ns#"
   xmlns:rdf="http://www.w3.org/1999/02/22-rdf-syntax-ns#"
   xmlns:svg="http://www.w3.org/2000/svg"
   xmlns="http://www.w3.org/2000/svg"
   xmlns:sodipodi="http://sodipodi.sourceforge.net/DTD/sodipodi-0.dtd"
   xmlns:inkscape="http://www.inkscape.org/namespaces/inkscape"
   width="128"
   height="128"
   viewBox="0 0 33.866666 33.866668"
   version="1.1"
   id="svg8"
   inkscape:version="1.0.1 (3bc2e813f5, 2020-09-07)"
   sodipodi:docname="exit.svg">
  <defs
     id="defs2" />
  <sodipodi:namedview
     id="base"
     pagecolor="#ffffff"
     bordercolor="#666666"
     borderopacity="1.0"
     inkscape:pageopacity="0.0"
     inkscape:pageshadow="2"
     inkscape:zoom="1.979899"
     inkscape:cx="52.509457"
     inkscape:cy="52.550453"
     inkscape:document-units="px"
     inkscape:current-layer="layer1"
     inkscape:document-rotation="0"
     showgrid="false"
     units="px"
     inkscape:window-width="1920"
     inkscape:window-height="1009"
     inkscape:window-x="-8"
     inkscape:window-y="-8"
     inkscape:window-maximized="1" />
  <metadata
     id="metadata5">
    <rdf:RDF>
      <cc:Work
         rdf:about="">
        <dc:format>image/svg+xml</dc:format>
        <dc:type
           rdf:resource="http://purl.org/dc/dcmitype/StillImage" />
        <dc:title></dc:title>
      </cc:Work>
    </rdf:RDF>
  </metadata>
  <g
     inkscape:label="レイヤー 1"
     inkscape:groupmode="layer"
     id="layer1">
    <g
       id="g935">
      <path
         id="path930"
         style="fill:#e1e1e1;fill-opacity:1;stroke-width:0.266435"
         d="m 16.693359,1.640625 c -1.543839,0.1424553 -2.513894,1.7720222 -2.339843,3.2300781 0.02025,4.1706282 -0.03994,8.3454459 0.02906,12.5135459 0.114532,1.578053 1.824973,2.903539 3.36547,2.291532 1.328186,-0.467625 1.920516,-1.979617 1.765625,-3.299219 -0.02159,-4.103265 0.0426,-8.2110652 -0.03102,-12.3115927 C 19.35,2.697997 18.113884,1.4771667 16.693359,1.640625 Z m 9.726563,4.5527344 c -1.683037,6.559e-4 -2.888495,2.066413 -2.001953,3.5117187 1.673278,1.9942669 2.797272,4.5093079 2.806113,7.1417089 0.154647,4.478204 -2.767257,8.927009 -7.054057,10.348185 -3.74995,1.346854 -8.195434,0.1206 -10.7895061,-2.886857 C 6.142889,20.772005 5.7417062,15.064894 8.387014,11.080498 8.9432589,10.226719 9.8685691,9.431465 9.6640625,8.296875 9.5411686,6.6712562 7.538156,5.6421669 6.1464844,6.4941406 5.1074554,7.2144096 4.4677389,8.3783891 3.7929274,9.4212299 0.92131134,14.252403 1.0815927,20.683229 4.2146434,25.352902 7.1497488,29.940411 12.698406,32.678398 18.127368,32.186518 23.85309,31.811949 29.128318,27.85207 31.122322,22.478 33.112349,17.43312 32.088075,11.364068 28.540084,7.2597171 28.048464,6.5848516 27.271112,6.1355761 26.419922,6.1933594 Z" />
      <path
         id="path833"
         style="fill:#e10000;fill-opacity:1;stroke-width:0.266435"
         d="m 16.933361,2.1585683 c -1.13599,0 -2.05053,1.03155 -2.05053,2.31304 V 16.977299 c 0,1.28149 0.91454,2.31304 2.05053,2.31304 1.13598,0 2.05052,-1.03155 2.05052,-2.31304 V 4.4716083 c 0,-1.28149 -0.91454,-2.31304 -2.05052,-2.31304 z m 9.54205,4.56044 c -0.19024,0.006 -0.37411,0.0402 -0.54725,0.0992 -0.23086,0.0787 -0.44263,0.20137 -0.62426,0.35864 -0.18162,0.15726 -0.33303,0.34914 -0.4439,0.56637 -0.11086,0.21723 -0.1814,0.45974 -0.19998,0.7183 -0.0186,0.25857 0.0164,0.5086404 0.0951,0.7394904 0.0514,0.15099 0.14816,0.27673 0.23461,0.40825 0.0874,0.1018 0.16681,0.21015 0.25063,0.31522 1.54902,1.9418403 2.51763,4.3998503 2.51767,7.1168803 -9e-5,6.19961 -4.84647,11.2253 -10.82466,11.22516 -5.978189,1.4e-4 -10.8245674,-5.02555 -10.8246564,-11.22516 4.5e-5,-2.61212 0.878515,-5.14245 2.484086,-7.1551203 a 10.824418,11.225322 0 0 1 0.05529,-0.0687 c 0.145017,-0.15626 0.272272,-0.33038 0.356567,-0.52968 0.09343,-0.2209 0.145211,-0.46388 0.145211,-0.7188204 0,-0.25494 -0.05178,-0.49792 -0.145211,-0.71882 -0.09343,-0.2209 -0.228255,-0.41997 -0.395325,-0.58704 -0.167068,-0.16707 -0.36614,-0.30189 -0.587044,-0.39533 -0.220904,-0.0934 -0.463881,-0.14521 -0.718819,-0.14521 -0.254939,0 -0.497916,0.0518 -0.718819,0.14521 -0.216607,0.0916 -0.410128,0.22498 -0.575159,0.38758 a 14.666417,14.666417 0 0 0 -0.02584,0.0289 c -0.03969,0.0408 -0.07753,0.0831 -0.113688,0.12713 -0.01458,0.0178 -0.02739,0.037 -0.04134,0.0553 -4.5e-4,5.8e-4 -0.0011,9.8e-4 -0.0016,0.002 -2.292957,2.6602307 -3.559916,6.0556407 -3.559978,9.5730507 7.1e-5,8.09994 6.56635,14.66622 14.6662954,14.66629 8.09993,-7e-5 14.66621,-6.56635 14.66628,-14.66629 -3e-5,-3.68874 -1.37216,-7.0500303 -3.62045,-9.6273207 -0.0266,-0.0305 -0.0548,-0.0596 -0.0816,-0.0899 -0.14803,-0.15873 -0.31536,-0.30085 -0.51159,-0.401 -0.21724,-0.11087 -0.45974,-0.18141 -0.7183,-0.19999 -0.0646,-0.005 -0.12883,-0.006 -0.19224,-0.004 z" />
    </g>
  </g>
</svg>
