<?xml version="1.0" encoding="UTF-8" standalone="no"?>
<svg
   xmlns:dc="http://purl.org/dc/elements/1.1/"
   xmlns:cc="http://creativecommons.org/ns#"
   xmlns:rdf="http://www.w3.org/1999/02/22-rdf-syntax-ns#"
   xmlns:svg="http://www.w3.org/2000/svg"
   xmlns="http://www.w3.org/2000/svg"
   xmlns:sodipodi="http://sodipodi.sourceforge.net/DTD/sodipodi-0.dtd"
   xmlns:inkscape="http://www.inkscape.org/namespaces/inkscape"
   width="128"
   height="128"
   viewBox="0 0 33.866666 33.866668"
   version="1.1"
   id="svg847"
   inkscape:version="1.0.1 (3bc2e813f5, 2020-09-07)"
   sodipodi:docname="load.svg">
  <defs
     id="defs841" />
  <sodipodi:namedview
     id="base"
     pagecolor="#ffffff"
     bordercolor="#666666"
     borderopacity="1.0"
     inkscape:pageopacity="0"
     inkscape:pageshadow="2"
     inkscape:zoom="3.959798"
     inkscape:cx="64.182752"
     inkscape:cy="60.051979"
     inkscape:document-units="px"
     inkscape:current-layer="layer1"
     inkscape:document-rotation="0"
     showgrid="false"
     units="px"
     inkscape:window-width="1920"
     inkscape:window-height="1009"
     inkscape:window-x="-8"
     inkscape:window-y="-8"
     inkscape:window-maximized="1" />
  <metadata
     id="metadata844">
    <rdf:RDF>
      <cc:Work
         rdf:about="">
        <dc:format>image/svg+xml</dc:format>
        <dc:type
           rdf:resource="http://purl.org/dc/dcmitype/StillImage" />
        <dc:title></dc:title>
      </cc:Work>
    </rdf:RDF>
  </metadata>
  <g
     inkscape:label="レイヤー 1"
     inkscape:groupmode="layer"
     id="layer1">
    <g
       id="g881"
       transform="matrix(1.0919269,0,0,1.0919269,-8.7128012,-0.84755259)">
      <path
         id="path876"
         style="opacity:0.997;fill:#e1e1e1;fill-opacity:1;stroke-width:0.309115"
         d="m 23.441406,4.0585938 c -1.221174,0.060641 -1.82658,1.3113297 -2.686096,2.0025023 -1.164951,1.2133576 -2.433879,2.3386629 -3.53656,3.6049195 -0.793466,1.1274294 0.252298,2.8562654 1.622846,2.6414844 1.151677,-0.137949 1.733901,-1.318813 2.567156,-1.98969 0.595698,-0.8115289 0.247132,0.656595 0.339295,1.060706 0.02285,3.392103 -0.04524,6.788873 0.0332,10.178125 0.20852,1.322362 2.031041,1.881838 2.935547,0.888671 0.84028,-0.907256 0.386,-2.235966 0.501953,-3.342187 0,-3.041536 0,-6.083073 0,-9.1246094 0.833737,0.7162934 1.463656,1.7184824 2.451172,2.2265624 1.259885,0.558777 2.739604,-0.804112 2.271141,-2.103319 C 29.540532,9.0712154 28.489947,8.4797497 27.800991,7.6506 26.657223,6.5563549 25.602665,5.3569924 24.408203,4.3222656 24.119079,4.1434616 23.779768,4.0553877 23.441406,4.0585938 Z" />
      <path
         id="path865"
         style="opacity:0.997;fill:#4800de;fill-opacity:1;stroke-width:0.309115"
         d="m 23.483872,22.430295 c 0.668092,0 1.205685,-0.547629 1.205685,-1.227867 V 8.6989135 l 2.727931,2.7285295 c 0.240563,0.240391 0.552881,0.362321 0.863944,0.365124 0.311065,0.0028 0.621144,-0.113328 0.857349,-0.349536 0.472415,-0.472412 0.46542,-1.240291 -0.01558,-1.721295 L 24.352019,4.9511565 c -0.0028,-0.00279 -0.0062,-0.00441 -0.009,-0.00719 -0.0026,-0.00255 -0.0041,-0.0058 -0.0067,-0.00835 -0.222619,-0.2226254 -0.511151,-0.3350606 -0.803985,-0.345341 -0.01625,-7.391e-4 -0.03231,-0.00406 -0.04857,-0.00418 -0.01629,8.12e-5 -0.03227,0.00348 -0.04857,0.00418 -0.29304,0.010094 -0.581813,0.1225648 -0.804589,0.3453388 -0.0031,0.00313 -0.0052,0.00696 -0.0084,0.01021 -0.0021,0.00209 -0.0046,0.00337 -0.0067,0.00545 L 17.844401,9.721854 c -0.481002,0.481004 -0.487996,1.248883 -0.01559,1.721295 0.472409,0.472413 1.239692,0.465419 1.720694,-0.01559 L 22.278131,8.6990249 V 21.202428 c 0,0.680238 0.537593,1.227867 1.205685,1.227867 z" />
    </g>
    <g
       id="g889"
       transform="translate(0,0.39415961)">
      <rect
         style="opacity:0.997;fill:#e1e1e1;fill-opacity:1;stroke-width:0.359345"
         id="rect869"
         width="32.578522"
         height="5.3243852"
         x="0.64407331"
         y="24.564079"
         rx="1.5875"
         ry="1.5875" />
      <rect
         style="opacity:0.997;fill:#3e3e3e;fill-opacity:1;stroke-width:0.309115"
         id="rect867"
         width="31.240927"
         height="4.1086078"
         x="1.3128701"
         y="25.171967"
         rx="1.2278686"
         ry="1.2278686" />
    </g>
  </g>
</svg>
