<?xml version="1.0" encoding="UTF-8" standalone="no"?>
<svg
   xmlns:dc="http://purl.org/dc/elements/1.1/"
   xmlns:cc="http://creativecommons.org/ns#"
   xmlns:rdf="http://www.w3.org/1999/02/22-rdf-syntax-ns#"
   xmlns:svg="http://www.w3.org/2000/svg"
   xmlns="http://www.w3.org/2000/svg"
   xmlns:sodipodi="http://sodipodi.sourceforge.net/DTD/sodipodi-0.dtd"
   xmlns:inkscape="http://www.inkscape.org/namespaces/inkscape"
   width="64"
   height="64"
   viewBox="0 0 16.933333 16.933334"
   version="1.1"
   id="svg8"
   inkscape:version="1.0.1 (3bc2e813f5, 2020-09-07)"
   sodipodi:docname="plus.svg">
  <defs
     id="defs2" />
  <sodipodi:namedview
     id="base"
     pagecolor="#ffffff"
     bordercolor="#666666"
     borderopacity="1.0"
     inkscape:pageopacity="0.0"
     inkscape:pageshadow="2"
     inkscape:zoom="3.959798"
     inkscape:cx="15.848562"
     inkscape:cy="28.135874"
     inkscape:document-units="px"
     inkscape:current-layer="layer1"
     inkscape:document-rotation="0"
     showgrid="false"
     units="px"
     inkscape:window-width="1920"
     inkscape:window-height="1009"
     inkscape:window-x="-8"
     inkscape:window-y="-8"
     inkscape:window-maximized="1" />
  <metadata
     id="metadata5">
    <rdf:RDF>
      <cc:Work
         rdf:about="">
        <dc:format>image/svg+xml</dc:format>
        <dc:type
           rdf:resource="http://purl.org/dc/dcmitype/StillImage" />
        <dc:title></dc:title>
      </cc:Work>
    </rdf:RDF>
  </metadata>
  <g
     inkscape:label="レイヤー 1"
     inkscape:groupmode="layer"
     id="layer1">
    <g
       id="g845">
      <path
         id="path840"
         style="opacity:0.997;fill:#e0e0e0;fill-opacity:1;stroke-width:0.244997"
         d="m 7.9726562,1.1582031 c -0.9232689,0.00488 -1.4340773,0.9904286 -1.2714843,1.8203125 0,1.2408854 0,2.4817709 0,3.7226563 C 5.188946,6.7300623 3.6665697,6.6450901 2.1601562,6.7402344 1.2645263,6.9287171 1.0396602,7.9397348 1.15625,8.7234375 1.0211394,9.6768153 1.975041,10.417848 2.8785156,10.232422 c 1.2742188,0 2.5484375,0 3.8226563,0 0.030381,1.512623 -0.058951,3.037142 0.041016,4.542969 0.1874523,0.895201 1.1992663,1.117902 1.98125,1.001953 0.9534207,0.135013 1.6937035,-0.819363 1.5089845,-1.722266 0,-1.274219 0,-2.548437 0,-3.822656 1.512623,-0.03038 3.037142,0.05895 4.542969,-0.04102 0.896198,-0.187583 1.117596,-1.2008026 1.001953,-1.9832029 0.134195,-0.9526662 -0.820279,-1.691509 -1.722266,-1.5070312 -1.274219,0 -2.548437,0 -3.822656,0 C 10.203531,5.188946 10.288504,3.6665697 10.193359,2.1601562 9.9506948,1.1102123 8.8420144,1.0895684 7.9726562,1.1582031 Z" />
      <path
         id="rect833"
         style="opacity:0.997;fill:#ea4308;fill-opacity:1;stroke-width:0.244997"
         d="m 8.0243164,1.6846519 c -0.4397376,0 -0.7937501,0.3540125 -0.7937501,0.79375 V 7.2305668 H 2.4784016 c -0.4397375,0 -0.79375,0.3540125 -0.79375,0.79375 v 0.8847005 c 0,0.4397376 0.3540125,0.7937501 0.79375,0.7937501 h 4.7521647 v 4.7521646 c 0,0.439737 0.3540125,0.79375 0.7937501,0.79375 h 0.8847005 c 0.4397375,0 0.79375,-0.354013 0.79375,-0.79375 V 9.7027674 h 4.7521651 c 0.439738,0 0.79375,-0.3540125 0.79375,-0.7937501 V 8.0243168 c 0,-0.4397375 -0.354012,-0.79375 -0.79375,-0.79375 H 9.7027669 V 2.4784019 c 0,-0.4397375 -0.3540125,-0.79375 -0.79375,-0.79375 z" />
    </g>
  </g>
</svg>
