<?xml version="1.0" encoding="UTF-8" standalone="no"?>
<svg
   xmlns:dc="http://purl.org/dc/elements/1.1/"
   xmlns:cc="http://creativecommons.org/ns#"
   xmlns:rdf="http://www.w3.org/1999/02/22-rdf-syntax-ns#"
   xmlns:svg="http://www.w3.org/2000/svg"
   xmlns="http://www.w3.org/2000/svg"
   xmlns:sodipodi="http://sodipodi.sourceforge.net/DTD/sodipodi-0.dtd"
   xmlns:inkscape="http://www.inkscape.org/namespaces/inkscape"
   width="128"
   height="128"
   viewBox="0 0 33.866666 33.866668"
   version="1.1"
   id="svg8"
   inkscape:export-filename="D:\Projects\GitHub\EzPuzzles\res\icons\restart.png"
   inkscape:export-xdpi="24.313999"
   inkscape:export-ydpi="24.313999"
   inkscape:version="1.0.1 (3bc2e813f5, 2020-09-07)"
   sodipodi:docname="restart.svg">
  <defs
     id="defs2" />
  <sodipodi:namedview
     id="base"
     pagecolor="#ffffff"
     bordercolor="#666666"
     borderopacity="1.0"
     inkscape:pageopacity="0.0"
     inkscape:pageshadow="2"
     inkscape:zoom="2.8"
     inkscape:cx="69.654865"
     inkscape:cy="103.58089"
     inkscape:document-units="px"
     inkscape:current-layer="layer1"
     inkscape:document-rotation="0"
     showgrid="false"
     units="px"
     inkscape:window-width="1920"
     inkscape:window-height="1009"
     inkscape:window-x="-8"
     inkscape:window-y="-8"
     inkscape:window-maximized="1" />
  <metadata
     id="metadata5">
    <rdf:RDF>
      <cc:Work
         rdf:about="">
        <dc:format>image/svg+xml</dc:format>
        <dc:type
           rdf:resource="http://purl.org/dc/dcmitype/StillImage" />
        <dc:title></dc:title>
      </cc:Work>
    </rdf:RDF>
  </metadata>
  <g
     inkscape:label="レイヤー 1"
     inkscape:groupmode="layer"
     id="layer1">
    <g
       id="g914">
      <path
         id="path908"
         style="fill:#e0e0e0;fill-opacity:1;stroke-width:0.238403"
         d="M 16.636719,3.6816406 C 13.036267,3.7532924 9.5471038,5.4693707 7.2070312,8.1933594 8.2963791,9.6162246 9.3817181,11.04216 10.46875,12.466797 c 1.448193,-1.977682 3.736864,-3.3085834 6.179688,-3.3710939 1.391113,-0.036287 2.44497,0.1833843 3.721026,0.7717588 2.108686,0.9850211 3.718315,3.0373321 4.226239,5.2536321 0.09044,0.411781 0.168349,0.836792 0.191406,1.28125 -1.207682,-7.8e-4 -2.415364,-0.0023 -3.623047,-0.002 2.08234,2.725522 4.164792,5.450959 6.248047,8.175781 2.086182,-2.724118 4.175169,-5.446086 6.261719,-8.169922 -1.254558,3.63e-4 -2.509114,-0.0012 -3.763672,-0.002 C 29.805412,9.8345941 24.177318,3.8602258 17.546563,3.6913421 17.243501,3.6773956 16.940018,3.6744188 16.636719,3.6816406 Z M 6,9.8652344 C 4.0838401,12.409676 2.1250607,14.925067 0.19335938,17.458984 c 1.27343782,-3.54e-4 2.54687502,0.0012 3.82031252,0.002 0.1033953,6.569149 5.7345394,12.546884 12.3655451,12.712981 3.885873,0.20591 7.780726,-1.521666 10.30633,-4.468841 -1.086479,-1.420962 -2.17224,-2.84248 -3.255859,-4.265625 -1.580659,2.161152 -4.23867,3.521762 -6.933594,3.326172 C 15.430452,24.696831 14.49531,24.459988 13.4375,23.943359 11.386034,22.96111 9.8047361,20.867692 9.3320312,18.761719 9.2201507,18.281476 9.1658099,17.92359 9.1328125,17.462891 c 1.1901045,7.85e-4 2.3802075,0.0024 3.5703125,0.002 C 10.593287,14.711329 8.5089432,11.956667 6.4023438,9.1992188 6.2682292,9.421224 6.1341146,9.6432292 6,9.8652344 Z" />
      <path
         id="path833"
         style="fill:#3051db;fill-opacity:1;stroke-width:0.238403"
         sodipodi:type="inkscape:offset"
         inkscape:radius="0"
         inkscape:original="M 16.939453 4.2070312 A 12.429194 12.725127 0 0 0 7.8984375 8.2265625 L 10.488281 11.621094 A 8.3749105 8.3749105 0 0 1 16.949219 8.5585938 A 8.3749105 8.3749105 0 0 1 16.960938 8.5585938 A 8.3749105 8.3749105 0 0 1 25.335938 16.931641 L 22.234375 16.929688 L 27.412109 23.705078 L 32.601562 16.935547 L 29.390625 16.933594 A 12.429194 12.725127 0 0 0 16.960938 4.2070312 A 12.429194 12.725127 0 0 0 16.939453 4.2070312 z M 6.453125 10.138672 A 12.429194 12.725127 0 0 0 6.3847656 10.251953 L 1.265625 16.929688 L 4.5332031 16.931641 A 12.429194 12.725127 0 0 0 4.5332031 16.933594 A 12.429194 12.725127 0 0 0 16.960938 29.658203 A 12.429194 12.725127 0 0 0 25.996094 25.673828 L 23.40625 22.28125 A 8.3749105 8.3749105 0 0 1 16.960938 25.308594 A 8.3749105 8.3749105 0 0 1 8.5859375 16.933594 L 11.632812 16.935547 L 9.2089844 13.765625 A 8.3749105 8.3749105 0 0 1 9.2128906 13.755859 L 6.8632812 10.675781 L 6.453125 10.138672 z "
         d="M 16.939453,4.2070312 A 12.429194,12.725127 0 0 0 7.8984375,8.2265625 l 2.5898435,3.3945315 a 8.3749105,8.3749105 0 0 1 6.460938,-3.0625002 8.3749105,8.3749105 0 0 1 0.01172,0 8.3749105,8.3749105 0 0 1 8.375,8.3730472 l -3.101563,-0.002 5.177734,6.77539 5.189453,-6.769531 -3.210937,-0.002 A 12.429194,12.725127 0 0 0 16.960938,4.2070312 a 12.429194,12.725127 0 0 0 -0.02148,0 z M 6.453125,10.138672 a 12.429194,12.725127 0 0 0 -0.068359,0.113281 l -5.1191406,6.677735 3.2675781,0.002 a 12.429194,12.725127 0 0 0 0,0.002 12.429194,12.725127 0 0 0 12.4277349,12.724609 12.429194,12.725127 0 0 0 9.035156,-3.984375 L 23.40625,22.28125 a 8.3749105,8.3749105 0 0 1 -6.445312,3.027344 8.3749105,8.3749105 0 0 1 -8.3750005,-8.375 l 3.0468745,0.002 -2.4238276,-3.169922 a 8.3749105,8.3749105 0 0 1 0.00391,-0.0098 L 6.8632812,10.675781 Z" />
    </g>
  </g>
</svg>
